<?xml version="1.0" ?><svg width="64px" height="64px" viewBox="0 0 64 64" xmlns="http://www.w3.org/2000/svg"><g id="a"/><g id="b"/><g id="c"/><g id="d"/><g id="e"/><g id="f"/><g id="g"/><g id="h"/><g id="i"/><g id="j"/><g id="k"/><g id="l"/><g id="m"/><g id="n"/><g id="o"/><g id="p"/><g id="q"/><g id="r"/><g id="s"/><g id="t"/><g id="u"/><g id="v"/><g id="w"/><g id="x"/><g id="y"/><g id="a`"/><g id="aa"/><g id="ab"/><g id="ac"/><g id="ad"><path d="M33.43,4.85c-.21-.38-.56-.66-.97-.78-.42-.12-.86-.07-1.24,.14-.27,.15-.5,.37-.65,.65L4.21,52.89c-.44,.81-.15,1.83,.67,2.28,.25,.13,.53,.21,.81,.21H24.12c.53,0,1.05,.17,1.48,.49l4.89,3.62c.45,.34,.99,.5,1.52,.5s1.06-.17,1.52-.5l4.89-3.62c.42-.31,.95-.49,1.48-.49h18.44c.93,0,1.68-.75,1.68-1.68,0-.28-.07-.56-.21-.81L33.43,4.85ZM6.22,53.38L30.4,9.32l-6.01,44.11c-.09,0-.18-.04-.27-.04H6.22Zm20.57,.88c-.14-.1-.31-.15-.46-.24l4.67-34.28V57.39l-4.21-3.12Zm6.21,3.12V19.75l4.67,34.28c-.15,.09-.32,.13-.46,.24l-4.21,3.12Zm6.88-4c-.09,0-.18,.04-.27,.04l-6.01-44.11,24.18,44.07h-17.9Z"/></g><g id="ae"/><g id="af"/><g id="ag"/><g id="ah"/><g id="ai"/><g id="aj"/><g id="ak"/><g id="al"/><g id="am"/><g id="an"/><g id="ao"/><g id="ap"/><g id="aq"/><g id="ar"/><g id="as"/><g id="at"/><g id="au"/><g id="av"/><g id="aw"/><g id="ax"/></svg>